<?xml version="1.0" encoding="UTF-8"?>
<svg version="1.1" viewBox="0 0 50 50" xmlns="http://www.w3.org/2000/svg">
    <g fill="#f4f6f8" stroke="#0f2d59" stroke-linecap="round" stroke-linejoin="round">
        <path d="m12.3 1.5-0.6 3.1-2.7 1.1-2.6-1.8-2.5 2.5 1.8 2.6l-1.1 2.7-3.1 0.6v3.5l3.1 0.5 1.1 2.7-1.8 2.6 2.5 2.5 2.6-1.8 2.7 1.1 0.6 3.1h3.5l0.5-3.1 2.7-1.1 2.6 1.8 2.5-2.5-1.8-2.6 1.1-2.7 3.1-0.5v-3.5l-3.1-0.6-1.1-2.7 1.8-2.6-2.5-2.5-2.6 1.8-2.7-1.1-0.5-3.1h-3.5zm1.7 8c2.5 0 4.5 2 4.5 4.5s-2 4.5-4.5 4.5-4.5-2-4.5-4.5 2-4.5 4.5-4.5z"/>
        <path d="m25 10.5-0.8 4.4-3.9 1.6-3.8-2.5-3.5 3.5 2.5 3.8-1.6 3.9-4.4 0.8v5l4.4 0.8 1.6 3.9-2.5 3.8 3.5 3.5 3.8-2.5 3.9 1.6 0.8 4.4h5l0.8-4.4 3.9-1.6 3.8 2.5 3.5-3.5-2.5-3.8 1.6-3.9 4.4-0.8v-5l-4.4-0.8-1.6-3.9 2.5-3.8-3.5-3.5-3.8 2.5-3.9-1.6-0.8-4.4h-5zm2.5 12c3.3 0 6 2.7 6 6s-2.7 6-6 6-6-2.7-6-6 2.7-6 6-6z"/>
    </g>
</svg>
