<svg version="1.1" xmlns="http://www.w3.org/2000/svg" viewBox="0 0 172 172">
  <defs>
    <radialGradient cx="83.3125" cy="88.6875" r="80.67069" gradientUnits="userSpaceOnUse" id="color-1" />
    <linearGradient x1="92.71875" y1="147.8125" x2="92.71875" y2="16.125" gradientUnits="userSpaceOnUse" id="color-2">
      <stop offset="0" stop-color="#3498db"></stop>
      <stop offset="0.422" stop-color="#9b59b6"></stop>
      <stop offset="1" stop-color="#9b59b6"></stop>
    </linearGradient>
    <linearGradient x1="104.8125" y1="46.58244" x2="104.8125" y2="148.03556" gradientUnits="userSpaceOnUse"
                    id="color-3">
      <stop offset="0" stop-color="#9b59b6"></stop>
      <stop offset="0.428" stop-color="#e74c3c"></stop>
      <stop offset="1" stop-color="#9b59b6"></stop>
    </linearGradient>
    <linearGradient x1="71.21875" y1="16.125" x2="71.21875" y2="147.8125" gradientUnits="userSpaceOnUse" id="color-4">
      <stop offset="0" stop-color="#9b59b6"></stop>
      <stop offset="0.428" stop-color="#e74c3c"></stop>
      <stop offset="1" stop-color="#9b59b6"></stop>
    </linearGradient>
  </defs>
  <g fill="none" fill-rule="nonzero" stroke="none" stroke-width="1" stroke-linecap="butt" stroke-linejoin="miter"
     stroke-miterlimit="10" stroke-dasharray="" stroke-dashoffset="0" font-family="none" font-weight="none"
     font-size="none" text-anchor="none" style="mix-blend-mode: normal">
    <path d="M0,172v-172h172v172z" fill="none"></path>
    <g>
      <path d="M166.625,158.5625c0,4.43437 -3.62813,8.0625 -8.0625,8.0625h-129c-4.43437,0 -8.0625,-3.62813 -8.0625,-8.0625c0,-4.43437 3.62813,-8.0625 8.0625,-8.0625h1.34375c3.69531,0 6.71875,-3.02344 6.71875,-6.71875c0,-3.69531 -3.02344,-6.71875 -6.71875,-6.71875h-22.84375c-4.43437,0 -8.0625,-3.62813 -8.0625,-8.0625c0,-4.43438 3.62813,-8.0625 8.0625,-8.0625h6.71875c3.69531,0 6.71875,-3.02344 6.71875,-6.71875c0,-3.69531 -3.02344,-6.71875 -6.71875,-6.71875h-1.34375c-4.43437,0 -8.0625,-3.62812 -8.0625,-8.0625c0,-4.43438 3.62813,-8.0625 8.0625,-8.0625h45.6875v-34.9375h-43c-4.43438,0 -8.0625,-3.62813 -8.0625,-8.0625c0,-4.43437 3.62812,-8.0625 8.0625,-8.0625h17.46875c3.69531,0 6.71875,-3.02344 6.71875,-6.71875c0,-3.69531 -3.02344,-6.71875 -6.71875,-6.71875h-6.71875c-4.43437,0 -8.0625,-3.62813 -8.0625,-8.0625c0,-4.43438 3.62813,-8.0625 8.0625,-8.0625h110.1875c4.43437,0 8.0625,3.62812 8.0625,8.0625c0,4.43437 -3.62813,8.0625 -8.0625,8.0625h-13.4375c-2.95625,0 -5.375,2.41875 -5.375,5.375c0,2.95625 2.41875,5.375 5.375,5.375h26.875c4.43437,0 8.0625,3.62812 8.0625,8.0625c0,4.43437 -3.62813,8.0625 -8.0625,8.0625h-6.71875c-3.69531,0 -6.71875,3.02344 -6.71875,6.71875c0,3.69531 3.02344,6.71875 6.71875,6.71875h12.09375c4.43437,0 8.0625,3.62812 8.0625,8.0625c0,4.43438 -3.62813,8.0625 -8.0625,8.0625h-32.25v37.625h26.875c4.43437,0 8.0625,3.62812 8.0625,8.0625c0,4.43437 -3.62813,8.0625 -8.0625,8.0625h-1.34375c-3.69531,0 -6.71875,3.02344 -6.71875,6.71875c0,3.69531 3.02344,6.71875 6.71875,6.71875h9.40625c4.43437,0 8.0625,3.62813 8.0625,8.0625zM16.125,158.5625v0c0,-4.43437 -3.62812,-8.0625 -8.0625,-8.0625v0c-4.43437,0 -8.0625,3.62813 -8.0625,8.0625v0c0,4.43437 3.62813,8.0625 8.0625,8.0625v0c4.43438,0 8.0625,-3.62813 8.0625,-8.0625z"
            fill="url(#color-1)"></path>
      <path d="M129,72.5625v-13.4375c0,-7.42019 -6.01731,-13.4375 -13.4375,-13.4375h-13.4375c-2.96969,0 -5.375,-2.40531 -5.375,-5.375v-5.375c0,-10.38987 -8.42262,-18.8125 -18.8125,-18.8125v0c-10.38988,0 -18.8125,8.42263 -18.8125,18.8125v5.375c0,2.96969 -2.40531,5.375 -5.375,5.375h-13.4375c-7.42019,0 -13.4375,6.01731 -13.4375,13.4375v13.4375c0,2.96969 2.40531,5.375 5.375,5.375h5.375c10.38987,0 18.8125,8.42262 18.8125,18.8125v0c0,10.38988 -8.42263,18.8125 -18.8125,18.8125h-5.375c-2.96969,0 -5.375,2.40531 -5.375,5.375v13.4375c0,7.42019 6.01731,13.4375 13.4375,13.4375h75.25c7.42019,0 13.4375,-6.01731 13.4375,-13.4375v-13.4375c0,-2.96969 2.40531,-5.375 5.375,-5.375h5.375c10.38987,0 18.8125,-8.42262 18.8125,-18.8125v0c0,-10.38988 -8.42263,-18.8125 -18.8125,-18.8125h-5.375c-2.96969,0 -5.375,-2.40531 -5.375,-5.375z"
            fill="url(#color-2)"></path>
      <path d="M104.8125,147.8125v0c-5.93669,0 -10.75,-4.81331 -10.75,-10.75v0c0,-5.93669 4.81331,-10.75 10.75,-10.75v0c5.93669,0 10.75,4.81331 10.75,10.75v0c0,5.93669 -4.81331,10.75 -10.75,10.75z"
            fill="url(#color-3)"></path>
      <path d="M86,137.0625c0,-5.93669 -4.81331,-10.75 -10.75,-10.75h-5.375c-4.45319,0 -8.0625,-3.60931 -8.0625,-8.0625c0,-4.45319 3.60931,-8.0625 8.0625,-8.0625h17.46875c6.67844,0 12.09375,-5.41531 12.09375,-12.09375c0,-6.67844 -5.41531,-12.09375 -12.09375,-12.09375c-5.19494,0 -9.40625,-4.21131 -9.40625,-9.40625c0,-5.19494 4.21131,-9.40625 9.40625,-9.40625h17.46875c5.93669,0 10.75,-4.81331 10.75,-10.75c0,-5.93669 -4.81331,-10.75 -10.75,-10.75h-2.6875c-2.96969,0 -5.375,-2.40531 -5.375,-5.375v-5.375c0,-10.38987 -8.42262,-18.8125 -18.8125,-18.8125c-10.38988,0 -18.8125,8.42263 -18.8125,18.8125v5.375c0,2.96969 -2.40531,5.375 -5.375,5.375h-2.6875h-10.75c-7.42019,0 -13.4375,6.01731 -13.4375,13.4375v13.4375c0,2.96969 2.40531,5.375 5.375,5.375h5.375c10.38987,0 18.8125,8.42262 18.8125,18.8125c0,10.38988 -8.42263,18.8125 -18.8125,18.8125h-5.375c-2.96969,0 -5.375,2.40531 -5.375,5.375v13.4375c0,7.42019 6.01731,13.4375 13.4375,13.4375h34.9375c5.93669,0 10.75,-4.81331 10.75,-10.75z"
            fill="url(#color-4)"></path>
    </g>
  </g>
</svg>